<svg data-v-423bf9ae="" xmlns="http://www.w3.org/2000/svg" viewBox="0 0 438 90" class="iconLeft"><!----><!----><!----><g data-v-423bf9ae="" id="4c1e2125-f888-4e51-9937-5bf72e3f13eb" fill="#000000" transform="matrix(4.950494706714481,0,0,4.950494706714481,124.92574085612108,-22.029700977484666)"><path d="M1.53 17.18L1.53 8.43L2.39 8.43L6.30 14.73L6.30 14.73Q6.34 14.80 6.46 14.99L6.46 14.99L6.46 14.99Q6.58 15.19 6.62 15.30L6.62 15.30L6.62 15.30Q6.65 15.41 6.66 15.55L6.66 15.55L6.75 15.55L6.75 8.43L7.66 8.43L7.66 17.18L6.79 17.18L2.88 10.88L2.88 10.88Q2.84 10.81 2.72 10.61L2.72 10.61L2.72 10.61Q2.60 10.42 2.57 10.30L2.57 10.30L2.57 10.30Q2.53 10.19 2.52 10.05L2.52 10.05L2.44 10.05L2.44 17.18L1.53 17.18ZM12.98 10.07L12.98 10.07Q13.89 10.07 14.39 10.23L14.39 10.23L14.39 10.23Q14.90 10.40 15.11 10.78L15.11 10.78L15.11 10.78Q15.32 11.16 15.32 11.84L15.32 11.84L15.32 17.18L14.94 17.18L14.67 16.48L14.67 16.48Q14.18 16.90 13.57 17.09L13.57 17.09L13.57 17.09Q12.96 17.29 12.12 17.29L12.12 17.29L12.12 17.29Q11.00 17.29 10.55 16.84L10.55 16.84L10.55 16.84Q10.09 16.39 10.09 15.29L10.09 15.29L10.09 15.29Q10.09 14.21 10.35 13.78L10.35 13.78L10.35 13.78Q10.60 13.36 11.41 13.22L11.41 13.22L11.41 13.22Q12.22 13.09 14.28 13.09L14.28 13.09L14.42 13.09L14.42 11.03L14.42 11.03Q13.78 10.84 12.75 10.84L12.75 10.84L12.75 10.84Q11.66 10.84 10.53 11.17L10.53 11.17L10.40 10.46L10.40 10.46Q10.81 10.29 11.56 10.18L11.56 10.18L11.56 10.18Q12.31 10.07 12.98 10.07L12.98 10.07ZM13.24 16.51L13.24 16.51Q13.93 16.51 14.18 16.32L14.18 16.32L14.18 16.32Q14.42 16.13 14.42 15.60L14.42 15.60L14.42 13.83L12.11 13.83L12.11 13.83Q11.41 13.83 11.16 14.02L11.16 14.02L11.16 14.02Q10.91 14.21 10.91 14.73L10.91 14.73L10.91 16.51L13.24 16.51ZM18.00 17.18L18.00 17.18ZM18.17 10.19L19.08 10.02L19.08 17.18L18.17 17.18L18.17 10.19ZM18.66 8.74L18.66 8.74Q18.27 8.74 18.14 8.61L18.14 8.61L18.14 8.61Q18.00 8.48 18.00 8.12L18.00 8.12L18.00 8.12Q18.00 7.74 18.14 7.61L18.14 7.61L18.14 7.61Q18.27 7.48 18.66 7.48L18.66 7.48L18.66 7.48Q19.03 7.48 19.15 7.61L19.15 7.61L19.15 7.61Q19.28 7.74 19.28 8.12L19.28 8.12L19.28 8.12Q19.28 8.48 19.16 8.61L19.16 8.61L19.16 8.61Q19.04 8.74 18.66 8.74L18.66 8.74ZM20.57 17.18L20.57 17.18ZM21.38 19.60L21.38 19.60Q20.89 19.60 20.57 19.47L20.57 19.47L20.64 18.98L20.64 18.98Q21.25 18.98 21.52 18.93L21.52 18.93L21.52 18.93Q21.80 18.87 21.90 18.70L21.90 18.70L21.90 18.70Q21.99 18.54 21.99 18.16L21.99 18.16L21.99 10.19L22.90 10.02L22.90 18.26L22.90 18.26Q22.90 18.94 22.53 19.27L22.53 19.27L22.53 19.27Q22.16 19.60 21.38 19.60L21.38 19.60ZM22.48 8.74L22.48 8.74Q22.09 8.74 21.96 8.61L21.96 8.61L21.96 8.61Q21.83 8.48 21.83 8.12L21.83 8.12L21.83 8.12Q21.83 7.74 21.96 7.61L21.96 7.61L21.96 7.61Q22.09 7.48 22.48 7.48L22.48 7.48L22.48 7.48Q22.85 7.48 22.97 7.61L22.97 7.61L22.97 7.61Q23.10 7.74 23.10 8.12L23.10 8.12L23.10 8.12Q23.10 8.48 22.98 8.61L22.98 8.61L22.98 8.61Q22.86 8.74 22.48 8.74L22.48 8.74ZM28.15 10.07L28.15 10.07Q29.06 10.07 29.57 10.23L29.57 10.23L29.57 10.23Q30.07 10.40 30.28 10.78L30.28 10.78L30.28 10.78Q30.49 11.16 30.49 11.84L30.49 11.84L30.49 17.18L30.11 17.18L29.85 16.48L29.85 16.48Q29.36 16.90 28.75 17.09L28.75 17.09L28.75 17.09Q28.14 17.29 27.30 17.29L27.30 17.29L27.30 17.29Q26.18 17.29 25.72 16.84L25.72 16.84L25.72 16.84Q25.27 16.39 25.27 15.29L25.27 15.29L25.27 15.29Q25.27 14.21 25.52 13.78L25.52 13.78L25.52 13.78Q25.77 13.36 26.59 13.22L26.59 13.22L26.59 13.22Q27.40 13.09 29.46 13.09L29.46 13.09L29.60 13.09L29.60 11.03L29.60 11.03Q28.95 10.84 27.93 10.84L27.93 10.84L27.93 10.84Q26.84 10.84 25.70 11.17L25.70 11.17L25.58 10.46L25.58 10.46Q25.98 10.29 26.73 10.18L26.73 10.18L26.73 10.18Q27.48 10.07 28.15 10.07L28.15 10.07ZM28.42 16.51L28.42 16.51Q29.11 16.51 29.35 16.32L29.35 16.32L29.35 16.32Q29.60 16.13 29.60 15.60L29.60 15.60L29.60 13.83L27.29 13.83L27.29 13.83Q26.59 13.83 26.33 14.02L26.33 14.02L26.33 14.02Q26.08 14.21 26.08 14.73L26.08 14.73L26.08 16.51L28.42 16.51ZM33.35 17.18L33.35 8.43L34.26 8.43L34.26 16.42L37.67 16.42L37.67 17.18L33.35 17.18ZM39.13 17.18L39.13 17.18ZM39.30 10.19L40.21 10.02L40.21 17.18L39.30 17.18L39.30 10.19ZM39.79 8.74L39.79 8.74Q39.40 8.74 39.26 8.61L39.26 8.61L39.26 8.61Q39.13 8.48 39.13 8.12L39.13 8.12L39.13 8.12Q39.13 7.74 39.26 7.61L39.26 7.61L39.26 7.61Q39.40 7.48 39.79 7.48L39.79 7.48L39.79 7.48Q40.15 7.48 40.28 7.61L40.28 7.61L40.28 7.61Q40.40 7.74 40.40 8.12L40.40 8.12L40.40 8.12Q40.40 8.48 40.28 8.61L40.28 8.61L40.28 8.61Q40.17 8.74 39.79 8.74L39.79 8.74ZM43.12 17.18L43.12 10.18L43.50 10.18L43.76 10.88L43.76 10.88Q44.27 10.46 44.86 10.26L44.86 10.26L44.86 10.26Q45.46 10.07 46.30 10.07L46.30 10.07L46.30 10.07Q48.24 10.07 48.24 11.10L48.24 11.10L48.24 17.18L47.33 17.18L47.33 10.81L45.44 10.81L45.44 10.81Q44.87 10.81 44.58 10.89L44.58 10.89L44.58 10.89Q44.28 10.98 44.16 11.17L44.16 11.17L44.16 11.17Q44.03 11.37 44.03 11.76L44.03 11.76L44.03 17.18L43.12 17.18ZM52.93 16.37L52.93 16.37Q54.15 16.49 54.68 16.63L54.68 16.63L54.68 16.63Q55.20 16.76 55.38 17.02L55.38 17.02L55.38 17.02Q55.57 17.28 55.57 17.82L55.57 17.82L55.57 17.82Q55.57 18.45 55.32 18.80L55.32 18.80L55.32 18.80Q55.08 19.15 54.52 19.30L54.52 19.30L54.52 19.30Q53.96 19.45 52.93 19.45L52.93 19.45L52.93 19.45Q52.21 19.45 51.53 19.33L51.53 19.33L51.53 19.33Q50.86 19.22 50.46 19.04L50.46 19.04L50.58 18.28L50.58 18.28Q51.34 18.47 51.81 18.54L51.81 18.54L51.81 18.54Q52.29 18.61 52.79 18.61L52.79 18.61L52.79 18.61Q53.47 18.61 53.92 18.56L53.92 18.56L53.92 18.56Q54.38 18.52 54.77 18.42L54.77 18.42L54.77 17.21L54.77 17.21Q53.30 17.12 52.69 16.99L52.69 16.99L52.69 16.99Q52.08 16.86 52.08 16.63L52.08 16.63L52.43 15.11L52.43 15.11Q51.62 15.06 51.17 14.81L51.17 14.81L51.17 14.81Q50.72 14.56 50.54 14.04L50.54 14.04L50.54 14.04Q50.36 13.51 50.36 12.56L50.36 12.56L50.36 12.56Q50.36 11.54 50.58 10.98L50.58 10.98L50.58 10.98Q50.81 10.43 51.35 10.20L51.35 10.20L51.35 10.20Q51.90 9.97 52.92 9.97L52.92 9.97L52.92 9.97Q54.11 9.97 54.64 10.28L54.64 10.28L55.58 9.56L56.06 10.05L55.24 10.92L55.24 10.92Q55.50 11.47 55.50 12.56L55.50 12.56L55.50 12.56Q55.50 13.57 55.28 14.11L55.28 14.11L55.28 14.11Q55.06 14.64 54.53 14.88L54.53 14.88L54.53 14.88Q54.00 15.11 53.02 15.12L53.02 15.12L52.93 16.37ZM51.30 11.73L51.30 14.38L53.34 14.38L53.34 14.38Q54.03 14.38 54.29 14.15L54.29 14.15L54.29 14.15Q54.54 13.93 54.54 13.36L54.54 13.36L54.54 10.71L52.51 10.71L52.51 10.71Q51.83 10.71 51.56 10.93L51.56 10.93L51.56 10.93Q51.30 11.16 51.30 11.73L51.30 11.73ZM60.28 17.29L60.28 17.29Q59.04 17.29 58.46 17.02L58.46 17.02L58.46 17.02Q57.89 16.74 57.69 16.01L57.69 16.01L57.69 16.01Q57.48 15.27 57.48 13.68L57.48 13.68L57.48 13.68Q57.48 12.08 57.69 11.35L57.69 11.35L57.69 11.35Q57.89 10.61 58.46 10.34L58.46 10.34L58.46 10.34Q59.04 10.07 60.28 10.07L60.28 10.07L60.28 10.07Q61.54 10.07 62.12 10.33L62.12 10.33L62.12 10.33Q62.69 10.60 62.89 11.33L62.89 11.33L62.89 11.33Q63.08 12.07 63.08 13.68L63.08 13.68L63.08 13.68Q63.08 15.27 62.88 16.01L62.88 16.01L62.88 16.01Q62.68 16.74 62.10 17.02L62.10 17.02L62.10 17.02Q61.53 17.29 60.28 17.29L60.28 17.29ZM58.41 16.48L61.47 16.48L61.47 16.48Q61.91 16.48 62.05 16.41L62.05 16.41L62.05 16.41Q62.19 16.35 62.19 16.14L62.19 16.14L62.19 10.88L59.12 10.88L59.12 10.88Q58.69 10.88 58.55 10.94L58.55 10.94L58.55 10.94Q58.41 11.00 58.41 11.21L58.41 11.21L58.41 16.48Z"></path></g><defs data-v-423bf9ae=""><linearGradient data-v-423bf9ae="" gradientTransform="rotate(25)" id="e3373da4-3dfb-430f-b6ed-843e99ba3978" x1="0%" y1="0%" x2="100%" y2="0%"><stop data-v-423bf9ae="" offset="0%" style="stop-color: rgb(4, 24, 4); stop-opacity: 1;"></stop><stop data-v-423bf9ae="" offset="100%" style="stop-opacity: 1;"></stop></linearGradient></defs><g data-v-423bf9ae="" id="f549267e-cc91-4d15-926e-e6a2fa781851" transform="matrix(3.2142857142857144,0,0,3.2142857142857144,-5.678571428571431,-3.2142857142857153)" stroke="none" fill="url(#e3373da4-3dfb-430f-b6ed-843e99ba3978)"><path d="M32 2l-2 2-3-1h-3l-2 1h-2l-3-1-2 1-1-2-4-1-4 1v2L5 5v3l1 3-4 4v8h6l3 6 8-1 1-4 3-3h2l1 1h1l7-13 3-1V6l-5-4zm4 5.279l-2.692.897-6.901 12.815-.992-.992h-2.828l-3.489 3.488-.9 3.604-6.618.827-2.96-5.92H3v-6.586l4.145-4.144L6 7.838V5.414l1-1V2.781l3-.75 3.312.827 1.241 2.483 2.524-1.262 2.761.92h2.398l2-1h2.602l3.433 1.145 1.804-1.805L36 6.48v.799z" xmlns="http://www.w3.org/2000/svg" xmlns:xlink="http://www.w3.org/1999/xlink"></path></g><!----></svg>